<?xml version="1.0" encoding="UTF-8" standalone="no"?>
<!-- Created with Inkscape (http://www.inkscape.org/) -->

<svg
   width="132.29167mm"
   height="132.29167mm"
   viewBox="0 0 132.29167 132.29167"
   version="1.1"
   id="svg5"
   xml:space="preserve"
   inkscape:version="1.2.1 (9c6d41e410, 2022-07-14)"
   sodipodi:docname="icon.svg"
   xmlns:inkscape="http://www.inkscape.org/namespaces/inkscape"
   xmlns:sodipodi="http://sodipodi.sourceforge.net/DTD/sodipodi-0.dtd"
   xmlns="http://www.w3.org/2000/svg"
   xmlns:svg="http://www.w3.org/2000/svg"><sodipodi:namedview
     id="namedview7"
     pagecolor="#ffffff"
     bordercolor="#666666"
     borderopacity="1.0"
     inkscape:showpageshadow="2"
     inkscape:pageopacity="0"
     inkscape:pagecheckerboard="0"
     inkscape:deskcolor="#d1d1d1"
     inkscape:document-units="mm"
     showgrid="false"
     inkscape:zoom="1.2623761"
     inkscape:cx="179.42355"
     inkscape:cy="376.67064"
     inkscape:window-width="1350"
     inkscape:window-height="1120"
     inkscape:window-x="2102"
     inkscape:window-y="149"
     inkscape:window-maximized="0"
     inkscape:current-layer="g839"><inkscape:grid
       type="xygrid"
       id="grid643"
       originx="-36.052417"
       originy="-86.320033" /></sodipodi:namedview><defs
     id="defs2"><pattern
       id="EMFhbasepattern"
       patternUnits="userSpaceOnUse"
       width="6"
       height="6"
       x="0"
       y="0" /></defs><g
     inkscape:label="Layer 1"
     inkscape:groupmode="layer"
     id="layer1"
     transform="translate(-36.052419,-86.320038)"><g
       style="fill:#ffffff;stroke:#000000;stroke-width:0.352977;stroke-dasharray:none"
       id="g839"
       transform="matrix(8.4991455,0,0,8.4991455,37.552421,87.820042)"><path
         style="fill:#ffffff;stroke:none;stroke-width:0.0311306px;stroke-linecap:butt;stroke-linejoin:miter;stroke-opacity:1"
         d="M 14.268982,14.268982 V 3.7988277 H 0.94333113 V 14.268982 Z"
         id="path3592"
         sodipodi:nodetypes="ccccc" /><path
         style="fill:#87cdde;stroke:#000000;stroke-width:0.335975;stroke-dasharray:none"
         d="m 3.3229117,-0.00850106 a 0.47591611,0.47591611 0 0 1 0.4759161,0.4759161 V 0.94333115 H 11.413485 V 0.46741504 a 0.4759165,0.4759165 0 0 1 0.951833,0 V 0.94333115 H 13.31715 A 1.9036644,1.9036644 0 0 1 15.220814,2.8469956 V 13.31715 A 1.9036644,1.9036644 0 0 1 13.31715,15.220814 H 1.8951634 A 1.9036644,1.9036644 0 0 1 -0.00850106,13.31715 V 2.8469956 A 1.9036644,1.9036644 0 0 1 1.8951634,0.94333115 H 2.8469956 V 0.46741504 a 0.47591611,0.47591611 0 0 1 0.4759161,-0.4759161 z M 0.94333115,3.7988278 V 13.31715 A 0.95183221,0.95183221 0 0 0 1.8951634,14.268982 H 13.31715 A 0.95183221,0.95183221 0 0 0 14.268982,13.31715 V 3.7988278 Z"
         id="path830" /></g><g
       id="g583"
       transform="matrix(0.101206,0,0,0.101206,-39.93028,178.2062)"><path
         d="m 1444.1078,-737.79339 c 11.9745,0 26.2367,1.21096 30.5422,3.36372 0,3.22914 0,14.12748 0,15.20385 0,15.33843 8.7456,17.4912 8.7456,17.4912 0,0 0,6.59281 0,14.12748 0,9.82198 -2.1527,16.4148 -2.1527,16.4148 -4.4402,1.07636 -15.3385,4.30553 -27.3134,13.05111 -8.7455,6.59282 -16.4146,16.4148 -16.4146,26.23675 0,6.4583 1.0762,10.89835 3.3636,15.20388 0,0 -4.4401,2.15277 -12.1091,2.15277 -9.6875,-1.07636 -20.5858,-8.74558 -27.1787,-20.72033 -8.7456,-15.20385 -13.051,-33.77141 -22.8732,-33.77141 -9.8217,0 -9.8217,9.82194 -17.4911,9.82194 -8.7456,0 -14.1276,-14.12748 -16.2803,-20.72029 -5.5163,-9.82199 -18.5674,-13.05112 -19.6439,-28.38955 h 41.4405 c 0,-22.87306 0,-35.92418 0,-58.79724 15.2041,0 23.9497,0 39.1535,0 v 25.02583 c 1.2108,1.07636 4.4401,2.15276 8.7456,3.22913 l -4.3055,19.64393 h -11.9749 l -4.4401,17.4912 h 11.9749 l -4.3055,21.7967 c 0,3.22913 -1.0765,10.89835 0,14.12748 2.1528,8.74558 7.669,11.97475 15.2038,11.97475 10.8983,0 20.7204,-5.38194 20.7204,-5.38194 l 4.4402,-14.12748 c -2.1528,0 -5.5167,0 -7.6694,0 -2.1528,0 -4.3055,0 -3.2293,-5.51645 l 5.382,-22.87306 h 11.9749 l 4.4401,-17.4912 h -11.9749 l 3.2293,-18.56757"
         style="fill:#be372f;fill-rule:evenodd;stroke:none"
         id="path10" /><path
         d="m 1420.1581,-731.20053 h 15.2041 l -11.9749,56.77906 h -15.2037 l 11.9745,-56.77906"
         style="fill:#be372f;fill-rule:evenodd;stroke:none"
         id="path14" /><path
         d="m 1431.0564,-751.92087 c 4.3058,0 8.7459,3.22913 8.7459,8.74558 0,4.30554 -4.4401,7.66922 -8.7459,7.66922 -4.4398,0 -8.7456,-3.36368 -8.7456,-7.66922 0,-5.51645 4.3058,-8.74558 8.7456,-8.74558"
         style="fill:#be372f;fill-rule:evenodd;stroke:none"
         id="path18" /></g><g
       id="g795"
       transform="matrix(7.967984,0,0,7.967984,-288.87205,-745.3167)"
       style="fill:#000000;stroke:none"><path
         id="rect761"
         style="fill:#000000;fill-opacity:1;stroke:none;stroke-width:0.1;stroke-linecap:round"
         d="m 54.239583,110.86041 h 0.264582 c 0,0 0,0 0,0 v 1.05834 c 0,0 0,0 0,0 h -0.264582 c -1e-6,0 -1e-6,0 -1e-6,0 v -1.05834 c 0,0 0,0 1e-6,0 z m -0.264584,-0.26458 h 0.264582 c 10e-7,0 10e-7,0 10e-7,0 v 0.26459 c 0,0 0,0 -10e-7,0 h -0.264582 c 0,0 -10e-7,0 -10e-7,0 v -0.26459 c 0,0 10e-7,0 10e-7,0 z m -0.264584,0.26458 h 0.264583 c 0,0 0,0 0,0 v 0.52917 c 0,0 0,0 0,0 h -0.264583 c 0,0 0,0 0,0 v -0.52917 c 0,0 0,0 0,0 z m -0.264583,-0.26458 h 0.264582 c 0,0 10e-7,0 10e-7,0 v 0.26459 c 0,0 -10e-7,0 -10e-7,0 h -0.264582 c 0,0 -1e-6,0 -1e-6,0 v -0.26459 c 0,0 1e-6,0 1e-6,0 z m -0.264584,0 h 0.264583 c 0,0 0,0 0,0 v 1.32292 c 0,0 0,0 0,0 h -0.264583 c 0,0 0,0 0,0 v -1.32292 c 0,0 0,0 0,0 z m -1.322914,0.52917 h 0.793749 c 0,0 1e-6,0 1e-6,0 v 0.26458 c 0,0 -1e-6,0 -1e-6,0 h -0.793749 c 0,0 0,0 0,0 V 111.125 c 0,0 0,0 0,0 z m -0.264583,-0.52917 h 0.264582 c 0,0 0,0 0,0 v 0.52917 c 0,0 0,0 0,0 h -0.264582 c -10e-7,0 -10e-7,0 -10e-7,0 v -0.52917 c 0,0 0,0 10e-7,0 z m 0.264583,-0.26458 h 0.793749 c 0,0 1e-6,0 1e-6,0 v 0.26459 c 0,0 -1e-6,0 -1e-6,0 h -0.793749 c 0,0 0,0 0,0 v -0.26459 c 0,0 0,0 0,0 z m 0.793751,0 h 0.264582 c 0,0 1e-6,0 1e-6,0 v 1.32292 c 0,0 -1e-6,0 -1e-6,0 h -0.264582 c 0,0 -10e-7,0 -10e-7,0 v -1.32292 c 0,0 10e-7,0 10e-7,0 z m -0.793751,1.32292 h 0.793749 c 0,0 1e-6,0 1e-6,0 v 0.26458 c 0,0 -1e-6,0 -1e-6,0 h -0.793749 c 0,0 0,0 0,0 v -0.26458 c 0,0 0,0 0,0 z m -0.793751,-0.79376 h 0.264583 c 0,0 0,0 0,0 v 0.26459 c 0,0 0,0 0,0 h -0.264583 c 0,0 0,0 0,0 v -0.26459 c 0,0 0,0 0,0 z m -0.529167,-0.26458 h 0.529166 c 0,0 0,0 0,0 v 0.26459 c 0,0 0,0 0,0 h -0.529166 c 0,0 0,0 0,0 v -0.26459 c 0,0 0,0 0,0 z m -0.264583,0.26458 h 0.264582 c 0,0 0,0 0,0 v 0.26459 c 0,0 0,0 0,0 h -0.264582 c -1e-6,0 -1e-6,0 -1e-6,0 v -0.26459 c 0,0 0,0 1e-6,0 z m -0.264584,-0.26458 h 0.264582 c 10e-7,0 10e-7,0 10e-7,0 v 1.32292 c 0,0 0,0 -10e-7,0 h -0.264582 c 0,0 -10e-7,0 -10e-7,0 v -1.32292 c 0,0 10e-7,0 10e-7,0 z m -1.322914,0.26458 h 0.793749 c 0,0 0,0 0,0 v 0.26459 c 0,0 0,0 0,0 h -0.793749 c 0,0 -10e-7,0 -10e-7,0 v -0.26459 c 0,0 10e-7,0 10e-7,0 z m 0.793747,-0.52916 h 0.264582 c 0,0 10e-7,0 10e-7,0 v 0.52917 c 0,0 -10e-7,0 -10e-7,0 h -0.264582 c 0,0 -1e-6,0 -1e-6,0 v -0.52917 c 0,0 1e-6,0 1e-6,0 z m -0.793747,-0.26458 h 0.793749 c 0,0 0,0 0,0 v 0.26459 c 0,0 0,0 0,0 h -0.793749 c 0,0 -10e-7,0 -10e-7,0 v -0.26459 c 0,0 10e-7,0 10e-7,0 z m -0.264584,0 h 0.264583 c 0,0 0,0 0,0 v 1.85209 c 0,0 0,0 0,0 h -0.264583 c 0,0 0,0 0,0 v -1.85209 c 0,0 0,0 0,0 z m -0.529167,0.79374 h 0.264582 c 1e-6,0 1e-6,0 1e-6,0 v 1.05834 c 0,0 0,0 -1e-6,0 h -0.264582 c 0,0 0,0 0,0 v -1.05834 c 0,0 0,0 0,0 z m -0.264583,-0.26458 h 0.264582 c 0,0 0,0 0,0 v 0.26459 c 0,0 0,0 0,0 h -0.264582 c -10e-7,0 -10e-7,0 -10e-7,0 v -0.26459 c 0,0 0,0 10e-7,0 z m -0.264584,0.26458 h 0.264582 c 10e-7,0 10e-7,0 10e-7,0 v 0.52917 c 0,0 0,0 -10e-7,0 h -0.264582 c 0,0 -10e-7,0 -10e-7,0 v -0.52917 c 0,0 10e-7,0 10e-7,0 z m -0.264584,-0.26458 h 0.264583 c 0,0 0,0 0,0 v 0.26459 c 0,0 0,0 0,0 h -0.264583 c 0,0 0,0 0,0 v -0.26459 c 0,0 0,0 0,0 z m -0.264583,0 h 0.264582 c 0,0 10e-7,0 10e-7,0 v 1.32292 c 0,0 -10e-7,0 -10e-7,0 H 46.83125 c -10e-7,0 -10e-7,0 -10e-7,0 v -1.32292 c 0,0 0,0 10e-7,0 z m -1.322919,0 h 0.79375 v 0.26459 h -0.79375 z m -0.264583,0.26458 h 0.264583 v 0.26459 h -0.264583 z m 0.264583,0.26459 h 0.79375 v 0.26458 h -0.79375 z m 0.793751,0.26458 h 0.264583 v 0.26458 h -0.264583 z m -1.058334,0.26459 h 1.058333 v 0.26458 h -1.058333 z m -1.322914,-0.79376 h 0.79375 v 0.26459 h -0.79375 z m 0.79375,-0.52916 h 0.264584 v 1.5875 h -0.264584 z m -0.79375,-0.26458 h 0.79375 v 0.26459 h -0.79375 z m -0.264584,0.26458 h 0.264583 v 1.5875 H 43.65625 Z" /></g><path
       id="rect2234"
       style="stroke-width:0.160942;stroke-linecap:round"
       d="m 114.06204,164.9881 h 2.12913 c 0,0 0,0 0,0 v 8.51645 c 0,0 0,0 0,0 h -2.12913 c 0,0 0,0 0,0 v -8.51645 c 0,0 0,0 0,0 z m -4.25822,-2.12911 h 4.25822 c 0,0 0,0 0,0 v 2.12912 c 0,0 0,0 0,0 h -4.25822 c 0,0 0,0 0,0 v -2.12912 c 0,0 0,0 0,0 z m -2.12912,2.12911 h 2.12912 c 0,0 0,0 0,0 v 2.12911 c 0,0 0,0 0,0 h -2.12912 c 0,0 0,0 0,0 v -2.12911 c 0,0 0,0 0,0 z m -2.12912,-2.12911 h 2.12912 c 0,0 0,0 0,0 v 10.64558 c 0,0 0,0 0,0 h -2.12912 c 0,0 0,0 0,0 v -10.64558 c 0,0 0,0 0,0 z m -8.516459,-2.12911 h 2.12912 c 0,0 0,0 0,0 v 2.12913 c 0,0 0,0 0,0 h -2.12912 c 0,0 0,0 0,0 v -2.12913 c 0,0 0,0 0,0 z m -2.12912,4.25822 h 2.12912 c 0,0 0,0 0,0 v 2.12911 c 0,0 0,0 0,0 h -2.12912 c 0,0 0,0 0,0 v -2.12911 c 0,0 0,0 0,0 z m 2.12912,0 h 2.12912 c 0,0 0,0 0,0 v 6.38734 c 0,0 0,0 0,0 h -2.12912 c 0,0 0,0 0,0 v -6.38734 c 0,0 0,0 0,0 z m -2.12912,6.38734 h 6.387349 c 0,0 0,0 0,0 v 2.12911 c 0,0 0,0 0,0 h -6.387349 c 0,0 0,0 0,0 v -2.12911 c 0,0 0,0 0,0 z" /><path
       id="rect3039"
       style="stroke-width:0.161827;stroke-linecap:round"
       d="m 140.86936,188.11363 h 6.42251 c 0,0 0,0 0,0 v 2.14085 c 0,0 0,0 0,0 h -6.42251 c 0,0 0,0 0,0 v -2.14085 c 0,0 0,0 0,0 z m -2.14082,2.14083 h 2.14084 c 0,0 0,0 0,0 v 2.14082 c 0,0 0,0 0,0 h -2.14084 c 0,0 0,0 0,0 v -2.14082 c 0,0 0,0 0,0 z m 2.14082,2.14086 h 6.42251 c 0,0 0,0 0,0 v 2.14084 c 0,0 0,0 0,0 h -6.42251 c 0,0 0,0 0,0 v -2.14084 c 0,0 0,0 0,0 z m 6.42251,2.14082 h 2.14082 c 0,0 0,0 0,0 v 2.14084 c 0,0 0,0 0,0 h -2.14082 c 0,0 0,0 0,0 v -2.14084 c 0,0 0,0 0,0 z m -8.56333,2.14083 h 8.56334 c 0,0 0,0 0,0 v 2.14082 c 0,0 0,0 0,0 h -8.56334 c 0,0 0,0 0,0 v -2.14082 c 0,0 0,0 0,0 z m -12.845,-8.56334 h 2.14084 c 0,0 0,0 0,0 v 4.28167 c 0,0 0,0 0,0 h -2.14084 c 0,0 0,0 0,0 v -4.28167 c 0,0 0,0 0,0 z m 2.14084,4.28169 h 6.42248 c 0,0 0,0 0,0 v 2.14084 c 0,0 0,0 0,0 h -6.42248 c 0,0 0,0 0,0 v -2.14084 c 0,0 0,0 0,0 z m 6.42248,-4.28169 h 2.14082 c 0,0 0,0 0,0 v 8.56335 c 0,0 0,0 0,0 h -2.14082 c 0,0 0,0 0,0 v -8.56335 c 0,0 0,0 0,0 z m -6.42248,8.56334 h 6.42248 c 0,0 0,0 0,0 v 2.14082 c 0,0 0,0 0,0 h -6.42248 c 0,0 0,0 0,0 v -2.14082 c 0,0 0,0 0,0 z m -12.84502,-8.56334 h 6.42251 c 0,0 0,0 0,0 v 2.14085 c 0,0 0,0 0,0 h -6.42251 c 0,0 0,0 0,0 v -2.14085 c 0,0 0,0 0,0 z m 0,4.28169 h 6.42251 c 0,0 0,0 0,0 v 2.14084 c 0,0 0,0 0,0 h -6.42251 c 0,0 0,0 0,0 v -2.14084 c 0,0 0,0 0,0 z m 6.42251,-2.14086 h 2.14082 c 0,0 0,0 0,0 v 6.42251 c 0,0 0,0 0,0 h -2.14082 c 0,0 0,0 0,0 v -6.42251 c 0,0 0,0 0,0 z m -6.42251,6.42251 h 8.56333 c 0,0 0,0 0,0 v 2.14082 c 0,0 0,0 0,0 h -8.56333 c 0,0 0,0 0,0 v -2.14082 c 0,0 0,0 0,0 z m -2.14084,-2.14083 h 2.14084 c 0,0 0,0 0,0 v 2.14084 c 0,0 0,0 0,0 h -2.14084 c 0,0 0,0 0,0 v -2.14084 c 0,0 0,0 0,0 z m -10.70417,-6.42251 h 4.28167 c 0,0 0,0 0,0 v 2.14085 c 0,0 0,0 0,0 h -4.28167 c 0,0 0,0 0,0 v -2.14085 c 0,0 0,0 0,0 z m 4.28167,2.14083 h 2.14084 c 0,0 0,0 0,0 v 2.14082 c 0,0 0,0 0,0 h -2.14084 c 0,0 0,0 0,0 v -2.14082 c 0,0 0,0 0,0 z m 2.14084,-6.42251 h 2.14082 c 0,0 0,0 0,0 v 12.84502 c 0,0 0,0 0,0 h -2.14082 c 0,0 0,0 0,0 v -12.84502 c 0,0 0,0 0,0 z m -6.42251,12.84502 h 8.56333 c 0,0 0,0 0,0 v 2.14082 c 0,0 0,0 0,0 h -8.56333 c 0,0 0,0 0,0 v -2.14082 c 0,0 0,0 0,0 z m -2.14083,-6.42251 h 2.14083 c 0,0 0,0 0,0 v 6.42251 c 0,0 0,0 0,0 h -2.14083 c 0,0 0,0 0,0 v -6.42251 c 0,0 0,0 0,0 z m -23.549196,-6.42251 h 6.422504 c 0,0 0,0 0,0 v 2.14083 c 0,0 0,0 0,0 h -6.422504 c -10e-7,0 -10e-7,0 -10e-7,0 v -2.14083 c 0,0 0,0 10e-7,0 z m -2.140831,2.14086 h 2.140833 c 0,0 10e-7,0 10e-7,0 v 4.28168 c 0,0 -10e-7,0 -10e-7,0 h -2.140833 c -2e-6,0 -2e-6,0 -2e-6,0 v -4.28168 c 0,0 0,0 2e-6,0 z m 8.563336,0 h 2.140833 c 10e-7,0 10e-7,0 10e-7,0 v 4.28168 c 0,0 0,0 -10e-7,0 h -2.140833 c -10e-7,0 -10e-7,0 -10e-7,0 v -4.28168 c 0,0 0,0 10e-7,0 z m 0,6.42251 h 2.140833 c 10e-7,0 10e-7,0 10e-7,0 v 4.28168 c 0,0 0,0 -10e-7,0 h -2.140833 c -10e-7,0 -10e-7,0 -10e-7,0 v -4.28168 c 0,0 0,0 10e-7,0 z m -6.422505,-2.14086 h 6.422504 c 0,0 0,0 0,0 v 2.14082 c 0,0 0,0 0,0 h -6.422504 c -10e-7,0 -10e-7,0 -10e-7,0 v -2.14082 c 0,0 0,0 10e-7,0 z m -2.140831,2.14086 h 2.140833 c 0,0 10e-7,0 10e-7,0 v 4.28168 c 0,0 -10e-7,0 -10e-7,0 h -2.140833 c -2e-6,0 -2e-6,0 -2e-6,0 v -4.28168 c 0,0 0,0 2e-6,0 z m 2.140831,4.28165 h 6.422504 c 0,0 0,0 0,0 v 2.14082 c 0,0 0,0 0,0 h -6.422504 c -10e-7,0 -10e-7,0 -10e-7,0 v -2.14082 c 0,0 0,0 10e-7,0 z m -14.98584,-10.70416 h 2.140832 c 0,0 2e-6,0 2e-6,0 v 2.14084 c 0,0 -2e-6,0 -2e-6,0 h -2.140832 c -2e-6,0 -2e-6,0 -2e-6,0 v -2.14084 c 0,0 0,0 2e-6,0 z m 2.140831,-2.14086 h 6.422503 c 0,0 0,0 0,0 v 2.14083 c 0,0 0,0 0,0 h -6.422503 c -2e-6,0 -2e-6,0 -2e-6,0 v -2.14083 c 0,0 0,0 2e-6,0 z m 6.422504,2.14086 h 2.140833 c 2e-6,0 2e-6,0 2e-6,0 v 2.14084 c 0,0 0,0 -2e-6,0 h -2.140833 c -10e-7,0 -10e-7,0 -10e-7,0 v -2.14084 c 0,0 0,0 10e-7,0 z m -2.14083,2.14082 h 2.140832 c 0,0 10e-7,0 10e-7,0 v 2.14085 c 0,0 -10e-7,0 -10e-7,0 h -2.140832 c -10e-7,0 -10e-7,0 -10e-7,0 v -2.14085 c 0,0 0,0 10e-7,0 z m -2.140837,2.14083 h 2.140832 c 0,0 10e-7,0 10e-7,0 v 2.14082 c 0,0 -10e-7,0 -10e-7,0 h -2.140832 c -2e-6,0 -2e-6,0 -2e-6,0 v -2.14082 c 0,0 0,0 2e-6,0 z m -2.140837,2.14086 h 2.140832 c 2e-6,0 2e-6,0 2e-6,0 v 2.14084 c 0,0 0,0 -2e-6,0 h -2.140832 c -2e-6,0 -2e-6,0 -2e-6,0 v -2.14084 c 0,0 0,0 2e-6,0 z m -2.140831,2.14082 h 2.140832 c 0,0 2e-6,0 2e-6,0 v 2.14084 c 0,0 -2e-6,0 -2e-6,0 h -2.140832 c -2e-6,0 -2e-6,0 -2e-6,0 v -2.14084 c 0,0 0,0 2e-6,0 z m 0,2.14083 h 10.704173 c 0,0 0,0 0,0 v 2.14082 c 0,0 0,0 0,0 H 61.658484 c -2e-6,0 -2e-6,0 -2e-6,0 v -2.14082 c 0,0 0,0 2e-6,0 z" /></g></svg>
